<?xml version="1.0" encoding="UTF-8" standalone="no"?>
<!-- Created with Inkscape (http://www.inkscape.org/) -->

<svg
   width="299.5976"
   height="80.563026"
   id="svg2"
   version="1.1"
   xml:space="preserve"
   xmlns:xlink="http://www.w3.org/1999/xlink"
   xmlns="http://www.w3.org/2000/svg"
   xmlns:svg="http://www.w3.org/2000/svg"
   xmlns:rdf="http://www.w3.org/1999/02/22-rdf-syntax-ns#"
   xmlns:cc="http://creativecommons.org/ns#"
   xmlns:dc="http://purl.org/dc/elements/1.1/"><defs
     id="defs4"><clipPath
       id="clipPath2995"
       clipPathUnits="userSpaceOnUse"><path
         id="path2997"
         d="M 0,0 H 4257.75 V 1149.83 H 0 Z" /></clipPath><path
       d="M 0,0 H 89.893 V 34.841 H 0 Z"
       id="prefix__a" /></defs><metadata
     id="metadata7"><rdf:RDF><cc:Work
         rdf:about=""><dc:format>image/svg+xml</dc:format><dc:type
           rdf:resource="http://purl.org/dc/dcmitype/StillImage" /><dc:title /><cc:license
           rdf:resource="http://creativecommons.org/licenses/by-sa/3.0/" /></cc:Work><cc:License
         rdf:about="http://creativecommons.org/licenses/by-sa/3.0/"><cc:permits
           rdf:resource="http://creativecommons.org/ns#Reproduction" /><cc:permits
           rdf:resource="http://creativecommons.org/ns#Distribution" /><cc:requires
           rdf:resource="http://creativecommons.org/ns#Notice" /><cc:requires
           rdf:resource="http://creativecommons.org/ns#Attribution" /><cc:permits
           rdf:resource="http://creativecommons.org/ns#DerivativeWorks" /><cc:requires
           rdf:resource="http://creativecommons.org/ns#ShareAlike" /></cc:License></rdf:RDF></metadata><g
     id="layer1"
     transform="translate(-507.3562,-352.13495)"><g
       transform="matrix(0.7045975,0,0,-0.7045975,507.14285,432.87055)"
       id="g2987"><g
         transform="scale(0.1)"
         id="g2989"><g
           id="g2991"><g
             clip-path="url(#clipPath2995)"
             id="g2993"><path
               id="path2999"
               style="fill:#f6842a;fill-opacity:1;fill-rule:nonzero;stroke:none"
               d="m 1512.59,475.832 h -436.6 c 0,-93.644 44.42,-144.402 130.05,-144.402 44.38,0 76.26,16.515 99.18,59.5 h 199.52 c -33.25,-153.266 -164.27,-223 -297.55,-223 -193.94,0 -338.713,121.625 -338.713,345.929 0,216.602 133.453,347.051 323.663,347.051 203.06,0 320.45,-139.238 320.45,-360.996 z M 1319.86,608.84 c -10.29,62.094 -61.36,102.609 -117.46,102.609 -60.1,0 -110.54,-35.492 -123.02,-102.609 h 240.48" /><path
               id="path3001"
               style="fill:#f6842a;fill-opacity:1;fill-rule:nonzero;stroke:none"
               d="m 1717,732.969 h 2.29 c 39.81,79.84 108.29,115.347 189.24,115.347 h 39.89 V 626.605 c -28.45,17.704 -55.89,21.536 -87.77,21.536 -115.12,0 -143.65,-84.84 -143.65,-196.399 V 189.563 H 1509.4 V 839.496 H 1717 V 732.969" /><path
               id="path3003"
               style="fill:#f6842a;fill-opacity:1;fill-rule:nonzero;stroke:none"
               d="m 486.449,765.914 h 2.344 c 37.59,64.574 108.465,94.996 176.75,94.996 174.457,0 295.473,-162.144 295.473,-348.297 0,-187.5 -119.844,-344.683 -293.25,-344.683 -67.246,0 -136.805,26.656 -181.317,83.687 V 0 H 279.102 v 839.496 h 207.347 z m -6.703,-252.055 c 0,-82.363 49.141,-145.679 133.313,-145.679 84.496,0 133.386,63.316 133.386,145.679 0,79.758 -48.89,146.961 -133.386,146.961 -84.172,0 -133.313,-67.203 -133.313,-146.961" /><path
               id="path3005"
               style="fill:#f6842a;fill-opacity:1;fill-rule:nonzero;stroke:none"
               d="m 2462.57,529.113 c 0,-99.695 -80.86,-180.547 -180.58,-180.547 -99.72,0 -180.54,80.852 -180.54,180.547 0,99.758 80.82,180.512 180.54,180.512 71.74,0 133.78,-41.781 162.91,-102.523 l -41.47,251.863 c -37.83,13.922 -78.7,21.535 -121.44,21.535 -194.24,0 -351.46,-157.281 -351.46,-351.387 0,-194.05 157.22,-351.465 351.46,-351.465 194.03,0 349.17,157.415 349.17,351.465 h -168.59" /><path
               id="path3007"
               style="fill:#f6842a;fill-opacity:1;fill-rule:nonzero;stroke:none"
               d="m 2460.67,525.668 c 0,194.09 157.31,351.5 351.45,351.5 193.95,0 351.34,-157.41 351.34,-351.5 0,-194.047 -157.39,-351.418 -351.34,-351.418 -194.14,0 -351.45,157.371 -351.45,351.418 z m 351.45,-180.441 c 99.56,0 180.42,80.82 180.42,180.441 0,99.703 -80.86,180.52 -180.42,180.52 -99.81,0 -180.58,-80.817 -180.58,-180.52 0,-99.621 80.77,-180.441 180.58,-180.441" /><path
               id="path3009"
               style="fill:#f6842a;fill-opacity:1;fill-rule:nonzero;stroke:none"
               d="m 3003.27,530.289 c 0,194.066 157.26,351.414 351.35,351.414 194.03,0 351.34,-157.348 351.34,-351.414 0,-194.101 -157.31,-351.476 -351.34,-351.476 -194.09,0 -351.35,157.375 -351.35,351.476 z m 351.35,-180.605 c 99.73,0 180.63,80.902 180.63,180.605 0,99.664 -80.9,180.484 -180.63,180.484 -99.81,0 -180.52,-80.82 -180.52,-180.484 0,-99.703 80.71,-180.605 180.52,-180.605" /><path
               id="path3011"
               style="fill:#f6842a;fill-opacity:1;fill-rule:nonzero;stroke:none"
               d="m 3724.19,534.844 c 0,99.687 82.6,180.5 182.41,180.5 99.46,0 180.37,-80.813 180.37,-180.5 0,-99.676 -80.91,-180.574 -180.37,-180.574 -64.11,0 -120.34,33.191 -152.22,83.359 l 43.58,-237.195 c 34.18,-11.114 70.48,-17.063 108.64,-17.063 193.77,0 351.15,157.371 351.15,351.473 0,194.043 -157.38,351.441 -351.15,351.441 -194.29,0 -351.67,-157.398 -351.67,-351.441 h 169.26" /><path
               id="path3013"
               style="fill:#f6842a;fill-opacity:1;fill-rule:nonzero;stroke:none"
               d="m 3554.08,16.2188 h 171.043 v 544.813 H 3554.08 Z" /><path
               id="path3015"
               style="fill:#f6842a;fill-opacity:1;fill-rule:nonzero;stroke:none"
               d="m 12.6758,189.563 h 207.34 v 649.934 h -207.34 z" /><path
               id="path3017"
               style="fill:#f6842a;fill-opacity:1;fill-rule:nonzero;stroke:none"
               d="M 120.801,908.355 C 54.1055,908.355 0,962.379 0,1029.14 c 0,66.62 54.1055,120.69 120.801,120.69 66.758,0 120.566,-54.07 120.566,-120.69 0,-66.761 -53.808,-120.785 -120.566,-120.785" /></g></g></g><g
         style="fill:#e4002b;fill-opacity:1;fill-rule:evenodd"
         id="g8188"
         transform="matrix(1.41925,0,0,-1.41925,170.38593,183.70379)"><mask
           fill="#ffffff"
           id="prefix__b"><use
             id="use8183"
             xlink:href="#prefix__a" /></mask><path
           style="fill:#e4002b;fill-opacity:1"
           id="path8186"
           mask="url(#prefix__b)"
           d="m 65.642,4.779 c 2.533,-2.929 6.248,-4.78 10.4,-4.78 7.65,0 13.851,6.276 13.851,14.016 0,7.741 -6.2,14.016 -13.85,14.016 -1.706,0 -3.352,-0.312 -4.847,-0.883 L 69.513,16.342 c 0.937,2.77 3.518,4.758 6.542,4.758 3.82,0 6.916,-3.172 6.916,-7.085 0,-3.913 -3.097,-7.085 -6.916,-7.085 -3.82,0 -6.925,3.172 -6.913,7.104 l -0.018,20.807 h -6.998 l 0.016,-8.684 c -2.032,1.187 -4.397,1.874 -6.913,1.874 -4.1,0 -7.777,-1.803 -10.307,-4.667 -2.536,2.851 -6.217,4.675 -10.306,4.675 -4.134,0 -7.839,-1.833 -10.368,-4.74 -2.539,2.916 -6.28,4.74 -10.42,4.74 C 6.177,28.04 0,21.764 0,14.024 0,6.284 6.178,0.008 13.827,0.008 c 1.849,0 3.6,0.367 5.226,1.032 L 20.3,11.493 C 19.29,8.83 16.787,6.939 13.838,6.939 c -3.82,0 -6.916,3.172 -6.916,7.085 0,3.913 3.096,7.085 6.916,7.085 3.811,0 6.903,-3.159 6.916,-7.06 0,-7.74 6.212,-14.04 13.861,-14.04 4.091,0 7.755,1.794 10.304,4.648 C 47.433,1.782 51.12,0 55.229,0 c 4.125,0 7.876,1.88 10.413,4.779 m -30.976,16.33 c 3.82,0 6.916,-3.172 6.916,-7.085 0,-3.913 -3.097,-7.085 -6.916,-7.085 -3.82,0 -6.917,3.172 -6.917,7.085 0,3.913 3.097,7.085 6.917,7.085 M 55.24,21.1 c 3.82,0 6.916,-3.172 6.916,-7.085 0,-3.913 -3.096,-7.085 -6.916,-7.085 -3.82,0 -6.916,3.172 -6.916,7.085 0,3.913 3.097,7.085 6.916,7.085"
           fill="#E30613" /></g><path
         style="fill:#e4002b;fill-opacity:1;stroke-width:0.324675"
         d="M 19.967532,51.461039 V 22.077922 h 7.129727 7.129726 l 0.0943,2.636243 0.0943,2.636242 1.056889,-1.474146 c 1.26974,-1.77103 4.388475,-3.927505 6.686858,-4.623682 7.345004,-2.224792 15.995289,1.090786 20.517994,7.864367 0.693906,1.039251 1.35549,2.007647 1.470188,2.151991 0.114698,0.144344 0.67737,-0.468161 1.250383,-1.361123 1.617662,-2.520911 5.061718,-5.567671 7.824224,-6.921652 3.695799,-1.811412 6.017305,-2.31728 10.706451,-2.332986 4.600484,-0.01541 6.900121,0.463126 10.551948,2.195774 6.71815,3.187497 10.90543,10.159632 11.82142,19.683518 0.18964,1.971852 0.27805,-0.554025 0.30966,-8.847403 l 0.0442,-11.607143 h 7.13256 7.13255 l 0.0915,3.809248 0.0915,3.809248 1.07309,-1.674005 c 2.7937,-4.358119 7.07656,-6.593842 12.63148,-6.593842 h 2.36685 v 7.467533 c 0,4.107143 -0.0547,7.467532 -0.12151,7.467532 -0.0668,0 -0.76083,-0.230351 -1.54221,-0.511892 -1.71112,-0.616539 -6.06795,-0.71351 -7.98171,-0.177651 -3.18829,0.892728 -5.52461,3.887641 -6.24074,7.99996 -0.2006,1.151927 -0.34759,6.618692 -0.34759,12.927216 v 10.931199 h -7.14286 -7.14286 l -0.0486,-10.957793 c -0.0268,-6.026785 -0.10951,-10.556006 -0.1839,-10.064935 l -0.13526,0.892857 H 91.049864 75.811688 v 1.611197 c 0,2.200928 1.12265,5.030933 2.569838,6.478122 1.626341,1.62634 4.228714,2.435409 7.15912,2.22574 2.645474,-0.189283 4.503325,-1.130653 5.732815,-2.904805 l 0.860305,-1.241422 h 6.814611 6.814613 l -0.20516,1.025763 c -0.11283,0.564172 -0.73741,2.134789 -1.38796,3.490259 -1.36534,2.844822 -4.746643,6.468611 -7.416623,7.948507 -7.24465,4.015503 -17.668676,3.863286 -24.79462,-0.362065 -2.336361,-1.385351 -5.777468,-4.667513 -6.711043,-6.401059 -0.342386,-0.635772 -0.698876,-1.153052 -0.792194,-1.149509 -0.09332,0.0035 -0.598098,0.728159 -1.121728,1.610256 -1.266094,2.132848 -4.432691,5.214124 -6.840156,6.655857 -2.899762,1.736556 -5.642625,2.498338 -9.090909,2.524848 -4.618281,0.03551 -8.286806,-1.290926 -11.459446,-4.143403 l -1.689904,-1.51937 v 8.796321 8.796322 H 27.11039 19.967532 Z m 27.89239,2.582224 c 1.923849,-1.047091 2.899913,-2.159891 3.989289,-4.548151 0.593588,-1.301329 0.733834,-2.191157 0.74026,-4.696744 0.0073,-2.846425 -0.07653,-3.262818 -1.058596,-5.257668 -1.824905,-3.706909 -4.638344,-5.302748 -8.929934,-5.065238 -4.826117,0.267094 -7.759134,3.002193 -8.700995,8.113857 -0.807756,4.38385 0.733107,8.892789 3.725361,10.901308 2.120973,1.423681 3.175343,1.700379 6.055963,1.589259 1.973861,-0.07614 2.782518,-0.27675 4.178652,-1.036623 z M 93.019481,37.651544 c 0,-0.963605 -1.418361,-3.586239 -2.485958,-4.59669 -2.112455,-1.999374 -5.831831,-2.760222 -8.940393,-1.828874 -2.387503,0.715314 -4.945007,3.554102 -5.579218,6.192851 l -0.214594,0.892857 h 8.610081 c 8.440556,0 8.610082,-0.013 8.610082,-0.660144 z"
         id="path1"
         transform="matrix(1.41925,0,0,-1.41925,0,114.98299)" /><path
         style="fill:#e4002b;fill-opacity:1;stroke-width:0.324675"
         d="M 1.1363636,44.805195 V 22.077922 H 8.2792208 15.422078 V 44.805195 67.532468 H 8.2792208 1.1363636 Z"
         id="path2"
         transform="matrix(1.41925,0,0,-1.41925,0,114.98299)" /><path
         style="fill:#e4002b;fill-opacity:1;stroke-width:0.324675"
         d="M 6.3290669,16.599082 C 2.9034162,15.475707 0.61225981,12.707072 0.25660571,9.2611149 -0.24110275,4.4387841 3.6201399,0.2576524 8.5494614,0.28122844 c 2.2978476,0.0109902 3.7103766,0.5413777 5.4054696,2.02968886 3.26603,2.8676129 3.704203,7.8874847 0.99816,11.4352907 -1.700409,2.229352 -6.0936524,3.682661 -8.6240241,2.852874 z"
         id="path3"
         transform="matrix(1.41925,0,0,-1.41925,0,114.98299)" /><path
         style="fill:#e4002b;fill-opacity:1;stroke-width:0.324675"
         d="m 250.48701,71.915584 c 0,-4.375 -0.0626,-7.954545 -0.13907,-7.954545 -0.0765,0 -0.98963,0.503088 -2.02922,1.117971 -1.03958,0.614883 -3.05898,1.523915 -4.48755,2.020071 -2.39216,0.830822 -2.98223,0.902104 -7.46753,0.902104 -4.48602,0 -5.07499,-0.07118 -7.46754,-0.902464 -3.54195,-1.23065 -6.71581,-3.164994 -9.35221,-5.699805 l -2.20935,-2.124228 -0.79828,1.020007 c -2.05574,2.626747 -7.32228,5.989419 -11.34145,7.241484 -3.23478,1.007704 -8.66035,1.234266 -12.04654,0.503035 -4.01671,-0.867386 -8.62636,-3.260821 -11.56411,-6.004357 -1.74205,-1.62688 -2.50823,-2.15911 -2.6345,-1.830058 -0.33172,0.864425 -4.52766,4.055889 -7.07445,5.380876 -6.41732,3.338659 -14.65821,3.534286 -21.27497,0.505036 -9.17187,-4.199023 -14.88131,-13.667325 -14.3001,-23.714679 0.60854,-10.519631 7.42406,-19.070115 17.76649,-22.289139 3.23401,-1.006567 9.38054,-1.0807 12.83276,-0.154774 l 2.28901,0.613936 1.22694,7.502947 c 0.67482,4.12662 1.30556,7.868206 1.40164,8.314634 0.14491,0.673243 0.002,0.582977 -0.8368,-0.529209 -4.69745,-6.227171 -14.17375,-6.633697 -19.58088,-0.840006 -5.90629,6.328534 -3.94185,16.594777 3.88487,20.302446 2.02297,0.958321 2.43379,1.034302 5.59245,1.034302 3.01918,0 3.62143,-0.09952 5.26561,-0.87015 2.55546,-1.197743 4.91642,-3.498626 6.13971,-5.983491 0.88486,-1.797393 1.0447,-2.549422 1.28963,-6.067356 0.49768,-7.148101 2.54188,-11.895999 7.10156,-16.494207 4.92927,-4.970932 9.70702,-7.112233 16.42975,-7.363525 3.26212,-0.121936 4.38065,-0.03053 6.65584,0.543888 4.71641,1.190759 9.6241,4.001515 12.29172,7.039756 l 1.00874,1.148894 1.92454,-1.924546 c 4.79203,-4.792028 10.61195,-7.204588 17.37992,-7.204588 6.78716,0 12.58607,2.410754 17.4153,7.239973 l 1.95992,1.959929 1.27504,-1.491668 c 2.86136,-3.347506 7.65823,-6.168429 12.61891,-7.420871 2.30689,-0.582431 3.37872,-0.668646 6.65584,-0.535376 6.7502,0.274508 11.50257,2.404998 16.41485,7.358783 7.97831,8.045731 9.36912,19.847241 3.51553,29.830396 -0.59904,1.021646 -2.33104,3.104318 -3.8489,4.628159 -2.18365,2.192266 -3.37886,3.089445 -5.72563,4.297938 -3.70282,1.906809 -7.40313,2.83063 -11.31982,2.826124 -2.39197,-0.0028 -7.10916,-0.661854 -7.49446,-1.047147 -0.1159,-0.115899 -2.73282,-14.309931 -2.73282,-14.822662 0,-0.199935 0.76881,0.262685 1.70846,1.028042 2.88383,2.348909 4.73206,2.99903 8.52596,2.99903 3.01862,0 3.4097,-0.07671 5.40866,-1.060942 2.75457,-1.356273 5.43907,-4.179695 6.46655,-6.801208 0.57138,-1.457829 0.73611,-2.532009 0.73611,-4.800188 0,-3.825265 -0.80914,-5.962089 -3.26006,-8.609375 -2.45822,-2.655176 -5.11652,-3.9498 -8.51414,-4.146485 -6.97264,-0.40364 -12.68911,4.147705 -13.66222,10.877614 -0.17742,1.227032 -0.32138,10.22147 -0.32496,20.303571 l -0.006,18.100649 h -5.84415 -5.84416 z M 203.90603,55.383873 c 4.31247,-2.131334 6.656,-5.733259 6.90359,-10.610587 0.17473,-3.441966 -0.39549,-5.618496 -2.11786,-8.083848 -2.65057,-3.793949 -6.71421,-5.727915 -11.45841,-5.453278 -7.87919,0.45612 -13.51079,8.16682 -11.55121,15.815773 0.63035,2.46051 1.43685,3.902971 3.24769,5.808677 2.72797,2.870861 5.73091,4.035416 9.88377,3.832965 2.30743,-0.112484 3.06345,-0.306922 5.09243,-1.309702 z m 37.88372,-0.09771 c 2.63151,-1.231435 4.96106,-3.569808 6.23564,-6.259255 0.9102,-1.920608 1.00058,-2.404593 1.00058,-5.358073 0,-2.973795 -0.0866,-3.429655 -1.03065,-5.422309 -1.31124,-2.767859 -3.44151,-4.898134 -6.20938,-6.20938 -1.99265,-0.944001 -2.44851,-1.030648 -5.4223,-1.030648 -2.9738,0 -3.42966,0.08665 -5.42231,1.030648 -2.76786,1.311246 -4.89814,3.441521 -6.20938,6.20938 -0.944,1.992654 -1.03065,2.448514 -1.03065,5.422309 0,2.95348 0.0904,3.437465 1.00059,5.358073 1.64019,3.460937 4.94722,6.238495 8.49484,7.134788 0.67037,0.169366 2.4183,0.256795 3.88429,0.194289 2.11468,-0.09017 3.08765,-0.311228 4.70873,-1.069822 z"
         id="path4"
         transform="matrix(1.41925,0,0,-1.41925,0,114.98299)" /></g></g></svg>
